<svg version="1.2" baseProfile="tiny-ps" xmlns="http://www.w3.org/2000/svg" viewBox="0 0 1500 1500" width="1500" height="1500">
	<title>195-ai</title>
	<defs>
		<linearGradient id="grd1" gradientUnits="userSpaceOnUse"  x1="691.041" y1="845.358" x2="915.688" y2="1019.97">
			<stop offset="0.04" stop-color="#06bed8"  />
			<stop offset="1" stop-color="#defa8e"  />
		</linearGradient>
		<linearGradient id="grd2" gradientUnits="userSpaceOnUse"  x1="767.021" y1="378.992" x2="811.11" y2="372.562">
			<stop offset="0.04" stop-color="#06cff1"  />
			<stop offset="1" stop-color="#defa8e"  />
		</linearGradient>
		<linearGradient id="grd3" gradientUnits="userSpaceOnUse"  x1="710.438" y1="497.992" x2="788.68" y2="409.654">
			<stop offset="0.04" stop-color="#06cff1"  />
			<stop offset="1" stop-color="#defa8e"  />
		</linearGradient>
		<linearGradient id="grd4" gradientUnits="userSpaceOnUse"  x1="473.86" y1="674.642" x2="783.905" y2="364.597">
			<stop offset="0.04" stop-color="#06cff1"  />
			<stop offset="1" stop-color="#defa8e"  />
		</linearGradient>
		<linearGradient id="grd5" gradientUnits="userSpaceOnUse"  x1="619.364" y1="731.027" x2="622.117" y2="607.145">
			<stop offset="0" stop-color="#030d14"  />
			<stop offset="1" stop-color="#0b2f45"  />
		</linearGradient>
		<radialGradient id="grd6" gradientUnits="userSpaceOnUse"  cx="732.095" cy="672.237" r="51.535">
			<stop offset="0.13" stop-color="#3280fc"  />
			<stop offset="1" stop-color="#000000"  />
		</radialGradient>
		<linearGradient id="grd7" gradientUnits="userSpaceOnUse"  x1="700.702" y1="634.844" x2="763.488" y2="634.844">
			<stop offset="0" stop-color="#030d14"  />
			<stop offset="1" stop-color="#0b2f45"  />
		</linearGradient>
		<radialGradient id="grd8" gradientUnits="userSpaceOnUse"  cx="872.771" cy="672.237" r="51.535">
			<stop offset="0.13" stop-color="#3280fc"  />
			<stop offset="1" stop-color="#000000"  />
		</radialGradient>
		<linearGradient id="grd9" gradientUnits="userSpaceOnUse"  x1="841.378" y1="634.844" x2="904.165" y2="634.844">
			<stop offset="0" stop-color="#030d14"  />
			<stop offset="1" stop-color="#0b2f45"  />
		</linearGradient>
		<linearGradient id="grd10" gradientUnits="userSpaceOnUse"  x1="761.468" y1="354.097" x2="819.816" y2="345.588">
			<stop offset="0.04" stop-color="#06cff1"  />
			<stop offset="1" stop-color="#defa8e"  />
		</linearGradient>
		<linearGradient id="grd11" gradientUnits="userSpaceOnUse"  x1="777.066" y1="755.534" x2="862.874" y2="669.726">
			<stop offset="0.072" stop-color="#0da9ab"  />
			<stop offset="1" stop-color="#defa8e"  />
		</linearGradient>
		<linearGradient id="grd12" gradientUnits="userSpaceOnUse"  x1="603.109" y1="956.208" x2="839.728" y2="679.899">
			<stop offset="0.04" stop-color="#06cff1"  />
			<stop offset="0.542" stop-color="#8eeab3"  />
			<stop offset="1" stop-color="#defa8e"  />
		</linearGradient>
		<linearGradient id="grd13" gradientUnits="userSpaceOnUse"  x1="665.66" y1="883.013" x2="808.462" y2="716.257">
			<stop offset="0.04" stop-color="#06cff1"  />
			<stop offset="1" stop-color="#defa8e"  />
		</linearGradient>
		<linearGradient id="grd14" gradientUnits="userSpaceOnUse"  x1="1040.086" y1="934.691" x2="894.127" y2="827.948">
			<stop offset="0.04" stop-color="#06cff1"  />
			<stop offset="1" stop-color="#defa8e"  />
		</linearGradient>
		<linearGradient id="grd15" gradientUnits="userSpaceOnUse"  x1="839.054" y1="927.028" x2="941.808" y2="873.48">
			<stop offset="0.04" stop-color="#06bed8"  />
			<stop offset="1" stop-color="#defa8e"  />
		</linearGradient>
		<radialGradient id="grd16" gradientUnits="userSpaceOnUse"  cx="812.226" cy="1162.666" r="147.209">
			<stop offset="0" stop-color="#bcd7d6"  />
			<stop offset="1" stop-color="#ffffff"  />
		</radialGradient>
	</defs>
	<style>
		tspan { white-space:pre }
		.shp0 { fill: url(#grd1) } 
		.shp1 { fill: url(#grd2) } 
		.shp2 { fill: url(#grd3) } 
		.shp3 { fill: url(#grd4) } 
		.shp4 { fill: url(#grd5) } 
		.shp5 { mix-blend-mode: screen;fill: url(#grd6) } 
		.shp6 { fill: #eefdff } 
		.shp7 { fill: url(#grd7) } 
		.shp8 { mix-blend-mode: screen;fill: url(#grd8) } 
		.shp9 { fill: url(#grd9) } 
		.shp10 { fill: url(#grd10) } 
		.shp11 { fill: #ffffff } 
		.shp12 { fill: url(#grd11) } 
		.shp13 { fill: url(#grd12) } 
		.shp14 { fill: url(#grd13) } 
		.shp15 { fill: url(#grd14) } 
		.shp16 { fill: url(#grd15) } 
		.shp17 { mix-blend-mode: soft-light;fill: url(#grd16) } 
	</style>
	<g id="\321\353\356\351 5">
		<g id="&lt;Group&gt;">
			<path id="&lt;Path&gt;" class="shp0" d="M599.03 844.74C668.08 863.66 684.4 858.36 696.7 876.87C698.11 879 705.33 889.86 703.88 903.79C702.73 914.9 696.55 923.47 692.65 927.24C669 950.14 603.91 922.12 566.63 891.49C558.5 884.81 536.7 866.89 541.09 854.16C542.89 848.94 548.48 846.35 552.49 844.56C570.22 836.62 588.62 841.89 599.03 844.74Z" />
			<path id="&lt;Path&gt;" class="shp1" d="M812.23 477.05L797.53 477.05L797.53 380.61L812.23 380.61L812.23 477.05Z" />
			<path id="&lt;Path&gt;" class="shp2" d="M855.63 530.33L754.13 530.33C746.64 530.33 740.58 524.26 740.58 516.77L740.58 480.5C740.58 473.01 746.64 466.95 754.13 466.95L855.63 466.95C863.11 466.95 869.18 473.01 869.18 480.5L869.18 516.77C869.18 524.26 863.11 530.33 855.63 530.33Z" />
			<path id="&lt;Path&gt;" class="shp3" d="M1034.97 741.13C1034.97 799.72 987.47 847.22 928.88 847.22L680.88 847.22C622.53 847.22 574.79 799.47 574.79 741.13L574.79 686.01C574.79 582.2 659.73 497.26 763.54 497.26L846.21 497.26C950.03 497.26 1034.97 582.2 1034.97 686.01L1034.97 741.13Z" />
			<path id="&lt;Path&gt;" class="shp4" d="M962.59 731.08L962.59 731.08C956.56 734.05 949.82 735.61 942.96 735.61L666.8 735.61C659.94 735.61 653.19 734.05 647.17 731.08C632.38 723.77 624.03 709.01 626.12 693.86L626.27 692.76C633.35 641.46 679.81 602.02 736.77 599.06C760.86 597.81 786.15 597.16 812.53 597.31C833.2 597.43 853.17 598.04 872.4 599.03C929.58 601.98 976.38 641.26 983.48 692.75C983.53 693.12 983.58 693.49 983.63 693.86C985.72 709.01 977.38 723.77 962.59 731.08Z" />
			<g id="&lt;Group&gt;">
				<path id="&lt;Path&gt;" class="shp5" d="M784.17 672.24C784.17 701 760.85 724.31 732.09 724.31C703.34 724.31 680.02 701 680.02 672.24C680.02 643.48 703.34 620.16 732.09 620.16C760.85 620.16 784.17 643.48 784.17 672.24Z" />
				<g id="&lt;Group&gt;">
					<path id="&lt;Path&gt;" class="shp6" d="M769.47 672.24C769.47 692.88 752.74 709.61 732.09 709.61C711.45 709.61 694.72 692.88 694.72 672.24C694.72 651.59 711.45 634.86 732.09 634.86C752.74 634.86 769.47 651.59 769.47 672.24Z" />
				</g>
				<g id="&lt;Group&gt;">
					<path id="&lt;Path&gt;" class="shp7" d="M763.49 672.24C763.49 689.57 749.43 703.63 732.09 703.63C714.76 703.63 700.7 689.57 700.7 672.24C700.7 654.9 714.76 640.84 732.09 640.84C749.43 640.84 763.49 654.9 763.49 672.24Z" />
				</g>
				<g id="&lt;Group&gt;">
					<path id="&lt;Path&gt;" class="shp6" d="M752.21 664.1C752.21 670.52 747 675.73 740.58 675.73C734.15 675.73 728.95 670.52 728.95 664.1C728.95 657.68 734.15 652.47 740.58 652.47C747 652.47 752.21 657.68 752.21 664.1Z" />
				</g>
				<g id="&lt;Group&gt;">
					<path id="&lt;Path&gt;" class="shp6" d="M732.09 696.31C732.09 698.87 730.02 700.95 727.45 700.95C724.89 700.95 722.82 698.87 722.82 696.31C722.82 693.75 724.89 691.67 727.45 691.67C730.02 691.67 732.09 693.75 732.09 696.31Z" />
				</g>
				<g id="&lt;Group&gt;">
					<path id="&lt;Path&gt;" class="shp6" d="M715.95 689.35C715.95 690.63 714.91 691.67 713.63 691.67C712.35 691.67 711.31 690.63 711.31 689.35C711.31 688.07 712.35 687.03 713.63 687.03C714.91 687.03 715.95 688.07 715.95 689.35Z" />
				</g>
			</g>
			<g id="&lt;Group&gt;">
				<path id="&lt;Path&gt;" class="shp8" d="M924.84 672.24C924.84 701 901.53 724.31 872.77 724.31C844.01 724.31 820.7 701 820.7 672.24C820.7 643.48 844.01 620.16 872.77 620.16C901.53 620.16 924.84 643.48 924.84 672.24Z" />
				<g id="&lt;Group&gt;">
					<path id="&lt;Path&gt;" class="shp6" d="M910.15 672.24C910.15 692.88 893.41 709.61 872.77 709.61C852.13 709.61 835.39 692.88 835.39 672.24C835.39 651.59 852.13 634.86 872.77 634.86C893.41 634.86 910.15 651.59 910.15 672.24Z" />
				</g>
				<g id="&lt;Group&gt;">
					<path id="&lt;Path&gt;" class="shp9" d="M904.16 672.24C904.16 689.57 890.11 703.63 872.77 703.63C855.43 703.63 841.38 689.57 841.38 672.24C841.38 654.9 855.43 640.84 872.77 640.84C890.11 640.84 904.16 654.9 904.16 672.24Z" />
				</g>
				<g id="&lt;Group&gt;">
					<path id="&lt;Path&gt;" class="shp6" d="M892.88 664.1C892.88 670.52 887.68 675.73 881.25 675.73C874.83 675.73 869.62 670.52 869.62 664.1C869.62 657.68 874.83 652.47 881.25 652.47C887.68 652.47 892.88 657.68 892.88 664.1Z" />
				</g>
				<g id="&lt;Group&gt;">
					<path id="&lt;Path&gt;" class="shp6" d="M872.77 696.31C872.77 698.87 870.69 700.95 868.13 700.95C865.57 700.95 863.49 698.87 863.49 696.31C863.49 693.75 865.57 691.67 868.13 691.67C870.69 691.67 872.77 693.75 872.77 696.31Z" />
				</g>
				<g id="&lt;Group&gt;">
					<path id="&lt;Path&gt;" class="shp6" d="M856.62 689.35C856.62 690.63 855.59 691.67 854.3 691.67C853.02 691.67 851.98 690.63 851.98 689.35C851.98 688.07 853.02 687.03 854.3 687.03C855.59 687.03 856.62 688.07 856.62 689.35Z" />
				</g>
			</g>
			<path id="&lt;Path&gt;" class="shp10" d="M823.71 374.18C823.71 384.58 815.28 393.01 804.88 393.01C794.48 393.01 786.05 384.58 786.05 374.18C786.05 363.78 794.48 355.35 804.88 355.35C815.28 355.35 823.71 363.78 823.71 374.18Z" />
			<path id="&lt;Path&gt;" class="shp11" d="M967.01 557.64C967.26 566.43 960.08 576.94 951.86 577.84C944.16 578.68 938.01 570.81 931.66 562.69C925.41 554.69 911.73 534.14 917.17 528.32C924.36 520.65 966.42 536.89 967.01 557.64Z" />
			<path id="&lt;Path&gt;" class="shp11" d="M966.08 679.58C963.98 681.06 949.34 651.24 910.05 625.39C896.24 616.3 882.6 609.82 883.41 607.93C884.23 606.02 899.59 609.58 911.89 615.28C951.06 633.46 968.57 677.82 966.08 679.58Z" />
			<path id="&lt;Path&gt;" class="shp11" d="M865.46 485.71C864.99 485.78 864.69 483.03 862.4 478.77C861.69 477.45 860.92 476.22 860.1 475.1C856.16 469.67 842.79 469.79 841.73 469.8C820.9 469.98 807.51 468.66 807.52 468.78C807.52 468.89 817.29 468.69 824.45 468.55C844.64 468.13 856.67 467.05 861.83 472.46C863.25 473.95 864.32 475.68 865.04 477.62C866.5 481.59 866.02 485.63 865.46 485.71Z" />
			<path id="&lt;Path&gt;" class="shp6" d="M861.13 757.96C860.62 762.95 856.46 766.79 851.47 767.28L782.49 773.93C777.5 774.41 772.69 771.43 771.24 766.64C770.59 764.5 770.09 762.3 769.75 760.04C769.66 759.42 769.82 758.78 770.21 758.28C770.6 757.78 771.18 757.47 771.81 757.41L858.84 749.01C859.46 748.95 860.07 749.15 860.54 749.56C861.01 749.97 861.29 750.55 861.32 751.18C861.42 753.47 861.35 755.74 861.13 757.96Z" />
			<path id="&lt;Path&gt;" class="shp12" d="M861.13 757.97C858.93 779.35 841.92 796.93 819.71 799.05C797.81 801.17 778.02 787.59 771.52 767.47C773.26 771.77 777.77 774.39 782.49 773.92L851.49 767.28C856.47 766.78 860.61 762.95 861.13 757.97Z" />
			<path id="&lt;Path&gt;" class="shp13" d="M969.81 912.9C969.81 913.53 969.81 914.14 969.78 914.72C969.56 920.5 968.21 924.86 967.55 926.81C948.57 984.82 937.19 1015.4 921.23 1040.15C918.48 1044.42 915.58 1048.52 912.47 1052.55C908.39 1057.92 903.93 1063.16 898.97 1068.56C887.94 1080.54 871.27 1085.97 865.9 1087.85C846.25 1094.79 828.89 1093.52 817.35 1093.63L815.33 1093.63C803.76 1093.52 786.43 1094.79 766.78 1087.85C761.41 1085.97 744.71 1080.54 733.72 1068.56C703.4 1035.57 691.75 1008.16 665.13 926.81C664.5 924.94 663.23 920.89 662.92 915.46C662.84 913.89 662.81 912.32 662.9 910.75C663.48 901.02 667.42 891.49 674.42 882.78C686.4 867.84 704.92 859.66 724.07 859.58L816.35 859.19L906.96 858.83C926.52 858.75 945.48 866.96 957.91 882.09C963.91 889.42 967.75 897.33 969.15 905.48C969.34 906.64 969.51 907.83 969.62 908.98C969.73 910.28 969.81 911.57 969.81 912.9Z" />
			<path id="&lt;Path&gt;" class="shp14" d="M816.34 859.2L724.06 859.59C704.91 859.67 686.39 867.85 674.4 882.79C667.4 891.5 663.46 901.03 662.88 910.76C663.35 900.78 667.46 891 674.76 882.1C687.16 866.97 706.15 858.76 725.71 858.84L816.34 859.2Z" />
			<path id="&lt;Path&gt;" class="shp15" d="M908.06 995.16C906.71 923.58 897.03 909.42 911.31 892.39C912.95 890.44 921.33 880.45 935.11 877.9C946.09 875.87 956.06 879.38 960.77 882.05C989.42 898.28 980.92 968.64 962.05 1013.05C957.94 1022.73 946.9 1048.71 933.45 1048.09C927.94 1047.83 923.87 1043.2 921.02 1039.86C908.4 1025.09 908.27 1005.95 908.06 995.16Z" />
			<path id="&lt;Path&gt;" class="shp16" d="M921.23 1040.15C918.48 1044.42 915.58 1048.52 912.47 1052.55C911.48 1051.53 910.59 1050.51 909.8 1049.57C897.18 1034.8 897.04 1015.68 896.84 1004.88C895.49 933.29 885.79 919.15 900.1 902.12C901.14 900.85 904.97 896.31 911.2 892.53C897.09 909.51 906.71 923.78 908.06 995.15C908.25 1005.95 908.42 1025.08 921.01 1039.87C921.09 1039.96 921.18 1040.04 921.23 1040.15Z" />
			<path id="&lt;Path&gt;" class="shp11" d="M961.63 935.55C961.22 927.86 959.78 922.2 956.89 910.89C953.12 896.09 948.38 888.87 951.46 886.01C953.46 884.15 957.4 885.41 958.3 885.69C971.83 890.01 976.01 915.39 975.43 931.28C975.08 941.01 972.7 951.88 969.14 952.36C968.58 952.44 967.18 952.37 966.18 951.48C962.2 947.97 961.93 941.4 961.63 935.55Z" />
			<path id="&lt;Path&gt;" class="shp11" d="M970.92 962.7C970.92 964.25 969.66 965.5 968.11 965.5C966.56 965.5 965.3 964.25 965.3 962.7C965.3 961.15 966.56 959.89 968.11 959.89C969.66 959.89 970.92 961.15 970.92 962.7Z" />
			<path id="&lt;Path&gt;" class="shp17" d="M959.44 1162.67C959.44 1195.95 893.53 1222.93 812.23 1222.93C730.92 1222.93 665.02 1195.95 665.02 1162.67C665.02 1129.38 730.92 1102.4 812.23 1102.4C893.53 1102.4 959.44 1129.38 959.44 1162.67Z" />
		</g>
	</g>
</svg>